<?xml version="1.0" encoding="UTF-8"?><svg id="Layer_1" xmlns="http://www.w3.org/2000/svg" viewBox="0 0 2000 2000"><defs><style>.cls-1,.cls-2,.cls-3,.cls-4{fill:#fff;}.cls-2{font-size:254.72px;}.cls-2,.cls-4{font-family:NeuePowerVariable-Bold, 'Neue Power Variable';font-variation-settings:'wght' 600, 'obli' 0;}.cls-3{font-family:Bahnschrift-Bold, Bahnschrift;font-size:67.37px;font-variation-settings:'wght' 700, 'wdth' 100;}.cls-5{fill:#1a1a1a;}.cls-4{font-size:55.32px;}</style></defs><rect class="cls-5" x="-7.39" width="2014.79" height="2014.79"/><g><g><path class="cls-1" d="M490.96,846.04s8.36,1.87-1.27,9.42c-4.55,3.57-110.32,92.16-123.54,102.97-13.22,10.8-3.81,13.59-3.81,13.59,0,0,5.34,1.12,18.51-2.31,12.13-3.15,73.55-18.08,73.55-18.08h.62c-16.51,13.29-45.79,37.95-53.02,43.8-.81,.66-2.41,2.14-3.89,3.72-3.11,3.33-7.39,9.86-7.66,12.68,0,0-1.05,8.36,6.67,8.02,.57,.01,24.97,1.35,87-27.15h0l-181.97,229.52,27.63-338.11c2.27-27.73,25.36-50.64,55.79-54.61,3.06-.4,6.28-.67,9.68-.8,7.72-.29,15.44,.45,22.96,2.04l72.94,15.36"/><path class="cls-1" d="M414.66,1153.96s-8.36-1.87,1.27-9.42c4.55-3.57,110.32-92.16,123.54-102.97,13.22-10.8,3.81-13.59,3.81-13.59,0,0-5.34-1.12-18.51,2.31-12.13,3.15-73.55,18.08-73.55,18.08h-.62c16.51-13.29,45.79-37.96,53.02-43.8,.81-.66,2.41-2.14,3.89-3.72,3.11-3.33,7.39-9.86,7.66-12.68,0,0,1.05-8.36-6.67-8.02-.57-.01-24.97-1.35-87,27.15h0l181.97-229.52-27.63,338.11c-2.27,27.73-25.36,50.64-55.79,54.61-3.06,.4-6.28,.67-9.68,.8-7.72,.29-15.44-.45-22.96-2.04l-72.94-15.36"/></g><g><text class="cls-2" transform="translate(654.42 1070.35)"><tspan x="0" y="0">FITZON.</tspan></text><text class="cls-3" transform="translate(658.48 1161.41)"><tspan x="0" y="0">Sculpt Your Strength</tspan></text><g><text class="cls-4" transform="translate(1642.06 875.57)"><tspan x="0" y="0">R</tspan></text><circle class="cls-1" cx="1662" cy="856.21" r="35.84"/></g></g></g></svg>